<svg xmlns="http://www.w3.org/2000/svg" viewBox="0 0 1600 1000" role="img" aria-label="Website and digital growth dashboard"><defs><linearGradient id="bg" x1="0" y1="0" x2="1" y2="1"><stop stop-color="#eef7ff"/><stop offset="1" stop-color="#d5e0ff"/></linearGradient><linearGradient id="screen" x1="0" y1="0" x2="1" y2="1"><stop stop-color="#07165f"/><stop offset="1" stop-color="#174fd8"/></linearGradient><filter id="s"><feDropShadow dx="0" dy="28" stdDeviation="26" flood-color="#071441" flood-opacity=".24"/></filter></defs><rect width="1600" height="1000" fill="url(#bg)"/><circle cx="1390" cy="120" r="330" fill="#22c8f7" opacity=".15"/><text x="82" y="112" fill="#07184f" font-family="Arial Black,Arial,sans-serif" font-size="72">DIGITAL THAT EARNS ATTENTION.</text><text x="84" y="178" fill="#61708d" font-family="Arial,sans-serif" font-size="31">Websites, search visibility and enquiry paths designed to move people to action.</text><g filter="url(#s)"><g transform="translate(105 270)"><rect width="1000" height="600" rx="42" fill="#182442"/><rect x="38" y="38" width="924" height="515" rx="26" fill="#fff"/><rect x="38" y="38" width="924" height="86" rx="26" fill="#f4f7fc"/><circle cx="83" cy="80" r="10" fill="#ef3a43"/><circle cx="117" cy="80" r="10" fill="#f5c623"/><circle cx="151" cy="80" r="10" fill="#22c878"/><rect x="240" y="63" width="520" height="34" rx="17" fill="#e2e8f3"/><rect x="72" y="160" width="480" height="355" rx="22" fill="url(#screen)"/><g transform="translate(115 205)" fill="none" stroke="#fff" stroke-width="20"><rect width="88" height="52" rx="26"/><rect x="57" width="88" height="52" rx="26"/></g><text x="115" y="315" fill="#fff" font-family="Arial Black,Arial,sans-serif" font-size="58">FAST. CLEAR.</text><text x="115" y="378" fill="#6deaff" font-family="Arial Black,Arial,sans-serif" font-size="58">BUILT TO CONVERT.</text><rect x="115" y="432" width="190" height="54" rx="27" fill="#22c8f7"/><text x="210" y="468" text-anchor="middle" fill="#06144e" font-family="Arial,sans-serif" font-size="24" font-weight="900">GET A QUOTE</text><g transform="translate(595 160)"><rect width="325" height="145" rx="22" fill="#f1f5fc"/><text x="28" y="42" fill="#6a7690" font-family="Arial,sans-serif" font-size="21" font-weight="700">WEBSITE VISITORS</text><text x="28" y="102" fill="#0b245f" font-family="Arial Black,Arial,sans-serif" font-size="50">12,540</text><text x="235" y="102" fill="#1aad68" font-family="Arial,sans-serif" font-size="26" font-weight="800">+18.2%</text><rect y="175" width="325" height="180" rx="22" fill="#f1f5fc"/><text x="28" y="220" fill="#6a7690" font-family="Arial,sans-serif" font-size="21" font-weight="700">ENQUIRIES</text><path d="M28 315l60-42 58 18 72-75 75 31" fill="none" stroke="#1556df" stroke-width="10" stroke-linecap="round" stroke-linejoin="round"/><g fill="#22c8f7"><circle cx="28" cy="315" r="9"/><circle cx="88" cy="273" r="9"/><circle cx="146" cy="291" r="9"/><circle cx="218" cy="216" r="9"/><circle cx="293" cy="247" r="9"/></g></g></g><rect x="335" y="870" width="545" height="44" rx="22" fill="#101a33"/></g><g filter="url(#s)" transform="translate(1110 330) rotate(5 190 280)"><rect width="380" height="590" rx="64" fill="#111a31"/><rect x="22" y="22" width="336" height="546" rx="46" fill="#fff"/><rect x="48" y="56" width="284" height="74" rx="22" fill="#081963"/><g transform="translate(75 78)" fill="none" stroke="#fff" stroke-width="12"><rect width="50" height="30" rx="15"/><rect x="32" width="50" height="30" rx="15"/></g><g transform="translate(48 160)"><rect width="284" height="112" rx="20" fill="#eef3fb"/><rect y="138" width="132" height="112" rx="20" fill="#eef3fb"/><rect x="152" y="138" width="132" height="112" rx="20" fill="#eef3fb"/><rect y="278" width="284" height="190" rx="20" fill="#eef3fb"/><path d="M25 420l55-65 55 25 58-88 65 43" fill="none" stroke="#1654dc" stroke-width="9"/></g></g></g></svg>